<svg width="20" height="20" viewBox="0 0 20 20" fill="none" xmlns="http://www.w3.org/2000/svg">
<g clip-path="url(#clip0_801_8694)">
<path d="M10 12.5C11.3807 12.5 12.5 11.3807 12.5 10C12.5 8.61929 11.3807 7.5 10 7.5C8.61929 7.5 7.5 8.61929 7.5 10C7.5 11.3807 8.61929 12.5 10 12.5Z" stroke="white" stroke-width="1.5" stroke-linecap="round" stroke-linejoin="round"/>
<path d="M16.1668 12.4999C16.0559 12.7513 16.0228 13.0301 16.0718 13.3004C16.1208 13.5707 16.2497 13.8202 16.4418 14.0166L16.4918 14.0666C16.6468 14.2214 16.7697 14.4052 16.8536 14.6075C16.9375 14.8098 16.9806 15.0267 16.9806 15.2458C16.9806 15.4648 16.9375 15.6817 16.8536 15.884C16.7697 16.0863 16.6468 16.2701 16.4918 16.4249C16.337 16.5799 16.1532 16.7028 15.9509 16.7867C15.7486 16.8706 15.5317 16.9137 15.3127 16.9137C15.0936 16.9137 14.8768 16.8706 14.6744 16.7867C14.4721 16.7028 14.2883 16.5799 14.1335 16.4249L14.0835 16.3749C13.8871 16.1828 13.6376 16.0539 13.3673 16.0049C13.097 15.9559 12.8182 15.989 12.5668 16.0999C12.3204 16.2056 12.1101 16.381 11.9621 16.6045C11.814 16.8281 11.7346 17.0901 11.7335 17.3583V17.4999C11.7335 17.9419 11.5579 18.3659 11.2453 18.6784C10.9328 18.991 10.5089 19.1666 10.0668 19.1666C9.6248 19.1666 9.20088 18.991 8.88832 18.6784C8.57576 18.3659 8.40016 17.9419 8.40016 17.4999V17.4249C8.39371 17.1491 8.30443 16.8816 8.14392 16.6572C7.98342 16.4328 7.75911 16.2618 7.50016 16.1666C7.24882 16.0557 6.97 16.0226 6.69967 16.0716C6.42934 16.1206 6.1799 16.2495 5.9835 16.4416L5.9335 16.4916C5.77871 16.6465 5.59489 16.7695 5.39256 16.8533C5.19023 16.9372 4.97336 16.9804 4.75433 16.9804C4.5353 16.9804 4.31843 16.9372 4.1161 16.8533C3.91377 16.7695 3.72995 16.6465 3.57516 16.4916C3.4202 16.3368 3.29727 16.153 3.2134 15.9507C3.12952 15.7483 3.08635 15.5314 3.08635 15.3124C3.08635 15.0934 3.12952 14.8765 3.2134 14.6742C3.29727 14.4719 3.4202 14.288 3.57516 14.1332L3.62516 14.0833C3.81728 13.8869 3.94615 13.6374 3.99517 13.3671C4.04418 13.0967 4.01109 12.8179 3.90016 12.5666C3.79453 12.3201 3.61913 12.1099 3.39555 11.9618C3.17198 11.8138 2.90999 11.7343 2.64183 11.7333H2.50016C2.05814 11.7333 1.63421 11.5577 1.32165 11.2451C1.00909 10.9325 0.833496 10.5086 0.833496 10.0666C0.833496 9.62456 1.00909 9.20063 1.32165 8.88807C1.63421 8.57551 2.05814 8.39992 2.50016 8.39992H2.57516C2.85099 8.39347 3.1185 8.30418 3.34291 8.14368C3.56732 7.98317 3.73826 7.75886 3.8335 7.49992C3.94443 7.24857 3.97752 6.96976 3.9285 6.69943C3.87948 6.4291 3.75061 6.17965 3.5585 5.98325L3.5085 5.93325C3.35354 5.77846 3.2306 5.59465 3.14673 5.39232C3.06286 5.18999 3.01969 4.97311 3.01969 4.75408C3.01969 4.53506 3.06286 4.31818 3.14673 4.11585C3.2306 3.91352 3.35354 3.72971 3.5085 3.57492C3.66328 3.41996 3.8471 3.29703 4.04943 3.21315C4.25176 3.12928 4.46864 3.08611 4.68766 3.08611C4.90669 3.08611 5.12357 3.12928 5.3259 3.21315C5.52823 3.29703 5.71204 3.41996 5.86683 3.57492L5.91683 3.62492C6.11323 3.81703 6.36268 3.94591 6.63301 3.99492C6.90333 4.04394 7.18215 4.01085 7.4335 3.89992H7.50016C7.74664 3.79428 7.95684 3.61888 8.10491 3.39531C8.25297 3.17173 8.33243 2.90974 8.3335 2.64159V2.49992C8.3335 2.05789 8.50909 1.63397 8.82165 1.32141C9.13421 1.00885 9.55814 0.833252 10.0002 0.833252C10.4422 0.833252 10.8661 1.00885 11.1787 1.32141C11.4912 1.63397 11.6668 2.05789 11.6668 2.49992V2.57492C11.6679 2.84307 11.7474 3.10506 11.8954 3.32864C12.0435 3.55221 12.2537 3.72762 12.5002 3.83325C12.7515 3.94418 13.0303 3.97727 13.3007 3.92826C13.571 3.87924 13.8204 3.75037 14.0168 3.55825L14.0668 3.50825C14.2216 3.35329 14.4054 3.23036 14.6078 3.14649C14.8101 3.06261 15.027 3.01944 15.246 3.01944C15.465 3.01944 15.6819 3.06261 15.8842 3.14649C16.0866 3.23036 16.2704 3.35329 16.4252 3.50825C16.5801 3.66304 16.7031 3.84685 16.7869 4.04918C16.8708 4.25151 16.914 4.46839 16.914 4.68742C16.914 4.90644 16.8708 5.12332 16.7869 5.32565C16.7031 5.52798 16.5801 5.7118 16.4252 5.86658L16.3752 5.91658C16.183 6.11298 16.0542 6.36243 16.0052 6.63276C15.9561 6.90309 15.9892 7.1819 16.1002 7.43325V7.49992C16.2058 7.74639 16.3812 7.9566 16.6048 8.10466C16.8284 8.25272 17.0903 8.33218 17.3585 8.33325H17.5002C17.9422 8.33325 18.3661 8.50885 18.6787 8.82141C18.9912 9.13397 19.1668 9.55789 19.1668 9.99992C19.1668 10.4419 18.9912 10.8659 18.6787 11.1784C18.3661 11.491 17.9422 11.6666 17.5002 11.6666H17.4252C17.157 11.6677 16.895 11.7471 16.6714 11.8952C16.4479 12.0432 16.2725 12.2534 16.1668 12.4999Z" stroke="white" stroke-width="1.5" stroke-linecap="round" stroke-linejoin="round"/>
</g>
<defs>
<clipPath id="clip0_801_8694">
<rect width="20" height="20" fill="white"/>
</clipPath>
</defs>
</svg>
